<svg width="60" height="60" viewBox="20 20 60 60" fill="none" xmlns="http://www.w3.org/2000/svg">
<path d="M39.8943 67.6365H35.8818V36.849H25.0859V33.3281H50.6401V36.849H39.8943V67.6365Z" fill="#6A45BE"/>
<path d="M60.0771 68.1068C58.3708 68.1068 56.8771 67.9797 55.5937 67.7276C54.3125 67.4776 53.125 67.0964 52.0312 66.5818V62.6609C53.0146 63.1609 54.1708 63.6193 55.5021 64.0359C56.8323 64.4505 58.374 64.6568 60.1271 64.6568C61.2042 64.6568 62.2365 64.5318 63.2229 64.2818C64.2083 64.0318 65.0875 63.6422 65.8604 63.1109C66.6354 62.5776 67.2448 61.8974 67.6896 61.0693C68.1365 60.2391 68.3604 59.2516 68.3604 58.1068C68.3604 57.1849 68.1604 56.3682 67.7604 55.6568C67.3625 54.9464 66.7333 54.2589 65.8729 53.5943C65.0146 52.9276 63.8875 52.2109 62.4937 51.4443C61.3042 50.7422 60.2365 50.0026 59.2896 49.2276C58.3448 48.4526 57.599 47.5464 57.0521 46.5068C56.5042 45.4651 56.2312 44.2016 56.2312 42.7151C56.2312 41.1214 56.5281 39.7099 57.1229 38.4818C57.7167 37.2516 58.5333 36.2182 59.5729 35.3818C60.6146 34.5464 61.8115 33.913 63.1646 33.4818C64.5167 33.0516 65.9521 32.8359 67.4687 32.8359C69.2687 32.8359 70.8323 33.0172 72.1604 33.3776C73.4906 33.7359 74.774 34.2214 76.0104 34.8318L74.4854 38.2109C73.6104 37.7422 72.5583 37.3151 71.3312 36.9318C70.1031 36.5484 68.8156 36.3568 67.4687 36.3568C66.4854 36.3568 65.5667 36.4859 64.7146 36.7443C63.8615 37.0026 63.1146 37.3901 62.4729 37.9068C61.8312 38.4214 61.3292 39.0589 60.9687 39.8193C60.6104 40.5776 60.4312 41.4568 60.4312 42.4568C60.4312 43.4734 60.6229 44.3182 61.0062 44.9901C61.3896 45.663 61.9521 46.2734 62.6937 46.8234C63.4375 47.3714 64.3573 47.9651 65.4521 48.6068C66.8437 49.4182 68.0708 50.2276 69.1354 51.0359C70.199 51.8422 71.0281 52.7724 71.6229 53.8276C72.2167 54.8839 72.5146 56.2089 72.5146 57.8026C72.5146 59.5255 72.2125 61.0318 71.6104 62.3234C71.0104 63.613 70.1542 64.6839 69.0437 65.5359C67.9323 66.3891 66.6167 67.0307 65.0979 67.4609C63.5812 67.8911 61.9073 68.1068 60.0771 68.1068Z" fill="#6A45BE"/>
</svg>
