<svg width="184" height="100" viewBox="12 0 184 100" fill="none" xmlns="http://www.w3.org/2000/svg">
<path d="M97.0795 59.5L104.519 37.9H107.444L114.884 59.5H112.589L105.524 39.13H106.394L99.3745 59.5H97.0795ZM100.394 54.265V52.195H111.554V54.265H100.394ZM123.878 59.95C122.368 59.95 121.078 59.575 120.008 58.825C118.938 58.065 118.118 57.04 117.548 55.75C116.978 54.46 116.693 53.005 116.693 51.385C116.693 49.775 116.973 48.325 117.533 47.035C118.103 45.745 118.918 44.725 119.978 43.975C121.038 43.225 122.308 42.85 123.788 42.85C125.308 42.85 126.588 43.22 127.628 43.96C128.668 44.7 129.453 45.715 129.983 47.005C130.523 48.285 130.793 49.745 130.793 51.385C130.793 52.995 130.528 54.45 129.998 55.75C129.468 57.04 128.688 58.065 127.658 58.825C126.628 59.575 125.368 59.95 123.878 59.95ZM124.103 57.895C125.253 57.895 126.203 57.615 126.953 57.055C127.703 56.495 128.263 55.725 128.633 54.745C129.003 53.755 129.188 52.635 129.188 51.385C129.188 50.115 129.003 48.995 128.633 48.025C128.263 47.045 127.703 46.28 126.953 45.73C126.213 45.18 125.278 44.905 124.148 44.905C122.988 44.905 122.028 45.19 121.268 45.76C120.508 46.33 119.943 47.105 119.573 48.085C119.213 49.065 119.033 50.165 119.033 51.385C119.033 52.615 119.218 53.725 119.588 54.715C119.968 55.695 120.533 56.47 121.283 57.04C122.033 57.61 122.973 57.895 124.103 57.895ZM129.188 59.5V47.305H128.948V37.9H131.168V59.5H129.188ZM154.696 59.5L154.711 48.865C154.711 47.615 154.361 46.635 153.661 45.925C152.971 45.205 152.091 44.845 151.021 44.845C150.411 44.845 149.816 44.985 149.236 45.265C148.656 45.545 148.176 45.995 147.796 46.615C147.426 47.235 147.241 48.045 147.241 49.045L145.936 48.67C145.906 47.51 146.131 46.495 146.611 45.625C147.101 44.755 147.771 44.08 148.621 43.6C149.481 43.11 150.451 42.865 151.531 42.865C153.161 42.865 154.466 43.37 155.446 44.38C156.426 45.38 156.916 46.735 156.916 48.445L156.901 59.5H154.696ZM135.361 59.5V43.3H137.341V47.29H137.581V59.5H135.361ZM145.051 59.5L145.066 49.015C145.066 47.725 144.721 46.71 144.031 45.97C143.351 45.22 142.451 44.845 141.331 44.845C140.211 44.845 139.306 45.23 138.616 46C137.926 46.76 137.581 47.775 137.581 49.045L136.261 48.325C136.261 47.285 136.506 46.355 136.996 45.535C137.486 44.705 138.156 44.055 139.006 43.585C139.856 43.105 140.821 42.865 141.901 42.865C142.931 42.865 143.846 43.085 144.646 43.525C145.456 43.965 146.091 44.605 146.551 45.445C147.011 46.285 147.241 47.305 147.241 48.505L147.226 59.5H145.051ZM161.106 40.225V37.75H163.311V40.225H161.106ZM161.106 59.5V43.3H163.311V59.5H161.106ZM179.508 59.5V51.235C179.508 50.335 179.423 49.51 179.253 48.76C179.083 48 178.808 47.34 178.428 46.78C178.058 46.21 177.573 45.77 176.973 45.46C176.383 45.15 175.663 44.995 174.813 44.995C174.033 44.995 173.343 45.13 172.743 45.4C172.153 45.67 171.653 46.06 171.243 46.57C170.843 47.07 170.538 47.68 170.328 48.4C170.118 49.12 170.013 49.94 170.013 50.86L168.453 50.515C168.453 48.855 168.743 47.46 169.323 46.33C169.903 45.2 170.703 44.345 171.723 43.765C172.743 43.185 173.913 42.895 175.233 42.895C176.203 42.895 177.048 43.045 177.768 43.345C178.498 43.645 179.113 44.05 179.613 44.56C180.123 45.07 180.533 45.655 180.843 46.315C181.153 46.965 181.378 47.66 181.518 48.4C181.658 49.13 181.728 49.86 181.728 50.59V59.5H179.508ZM167.793 59.5V43.3H169.788V47.29H170.013V59.5H167.793Z" fill="#8A3AC8"/>
<path d="M39.8943 67.6365H35.8818V36.849H25.0859V33.3281H50.6401V36.849H39.8943V67.6365Z" fill="#6A45BE"/>
<path d="M60.0771 68.1068C58.3708 68.1068 56.8771 67.9797 55.5937 67.7276C54.3125 67.4776 53.125 67.0964 52.0312 66.5818V62.6609C53.0146 63.1609 54.1708 63.6193 55.5021 64.0359C56.8323 64.4505 58.374 64.6568 60.1271 64.6568C61.2042 64.6568 62.2365 64.5318 63.2229 64.2818C64.2083 64.0318 65.0875 63.6422 65.8604 63.1109C66.6354 62.5776 67.2448 61.8974 67.6896 61.0693C68.1365 60.2391 68.3604 59.2516 68.3604 58.1068C68.3604 57.1849 68.1604 56.3682 67.7604 55.6568C67.3625 54.9464 66.7333 54.2589 65.8729 53.5943C65.0146 52.9276 63.8875 52.2109 62.4937 51.4443C61.3042 50.7422 60.2365 50.0026 59.2896 49.2276C58.3448 48.4526 57.599 47.5464 57.0521 46.5068C56.5042 45.4651 56.2312 44.2016 56.2312 42.7151C56.2312 41.1214 56.5281 39.7099 57.1229 38.4818C57.7167 37.2516 58.5333 36.2182 59.5729 35.3818C60.6146 34.5464 61.8115 33.913 63.1646 33.4818C64.5167 33.0516 65.9521 32.8359 67.4687 32.8359C69.2687 32.8359 70.8323 33.0172 72.1604 33.3776C73.4906 33.7359 74.774 34.2214 76.0104 34.8318L74.4854 38.2109C73.6104 37.7422 72.5583 37.3151 71.3312 36.9318C70.1031 36.5484 68.8156 36.3568 67.4687 36.3568C66.4854 36.3568 65.5667 36.4859 64.7146 36.7443C63.8615 37.0026 63.1146 37.3901 62.4729 37.9068C61.8312 38.4214 61.3292 39.0589 60.9687 39.8193C60.6104 40.5776 60.4312 41.4568 60.4312 42.4568C60.4312 43.4734 60.6229 44.3182 61.0062 44.9901C61.3896 45.663 61.9521 46.2734 62.6937 46.8234C63.4375 47.3714 64.3573 47.9651 65.4521 48.6068C66.8437 49.4182 68.0708 50.2276 69.1354 51.0359C70.199 51.8422 71.0281 52.7724 71.6229 53.8276C72.2167 54.8839 72.5146 56.2089 72.5146 57.8026C72.5146 59.5255 72.2125 61.0318 71.6104 62.3234C71.0104 63.613 70.1542 64.6839 69.0437 65.5359C67.9323 66.3891 66.6167 67.0307 65.0979 67.4609C63.5812 67.8911 61.9073 68.1068 60.0771 68.1068Z" fill="#6A45BE"/>
</svg>
